# xmcd CD database file
#
# Track frame offsets:
#	150
#	19776
#	40816
#	54841
#	72805
#	93357
#	107964
#	119513
#	141305
#	154296
#	174063
#	190743
#	207699
#	222187
#
# Disc length: 3211 seconds
#
# Revision: 0
# Processed by: cddbd v1.5.2PL0 Copyright (c) Steve Scherf et al.
# Submitted via: CDex 1.70beta2
#
DISCID=c60c890e
DTITLE=Tommie Branch - Broken Branch, Vol. I
DYEAR=2008
DGENRE=Country
TTITLE0=Burnin' Me
TTITLE1=Shoestring Budget
TTITLE2=Cast Your Line
TTITLE3=Brown Paper Bag
TTITLE4=Quitters Never Win
TTITLE5=Give Me One Good Reason
TTITLE6=Possibility
TTITLE7=Dance
TTITLE8=Mother Wit
TTITLE9=I Had A Little Bit
TTITLE10=Lonely Married Women
TTITLE11=Billy Got Me
TTITLE12=Salmon Don't Make Cakes (acoustic)
TTITLE13=Shoe String Budget (acoustic)
EXTD=YEAR: 2008
EXTT0=
EXTT1=
EXTT2=
EXTT3=
EXTT4=
EXTT5=
EXTT6=
EXTT7=
EXTT8=
EXTT9=
EXTT10=
EXTT11=
EXTT12=
EXTT13=
PLAYORDER=
